/* XPM */
static char * battery_charged_xpm[] = {
"32 32 2 1",
" 	c #FFFFFF",
".	c #000000",
"                                ",
"                                ",
"                                ",
"                                ",
"                                ",
"                                ",
"                                ",
".............................   ",
".............................   ",
".............................   ",
"...                       ......",
"...                       ......",
"...  ...................  ......",
"...  ...................     ...",
"...  ...................     ...",
"...  ...................     ...",
"...  ...................     ...",
"...  ...................     ...",
"...  ...................     ...",
"...  ...................  ......",
"...                       ......",
"...                       ......",
".............................   ",
".............................   ",
".............................   ",
"                                ",
"                                ",
"                                ",
"                                ",
"                                ",
"                                ",
"                                "};
