<?xml version="1.0" encoding="UTF-8" standalone="no"?>
<svg
   xmlns:dc="http://purl.org/dc/elements/1.1/"
   xmlns:cc="http://creativecommons.org/ns#"
   xmlns:rdf="http://www.w3.org/1999/02/22-rdf-syntax-ns#"
   xmlns:svg="http://www.w3.org/2000/svg"
   xmlns="http://www.w3.org/2000/svg"
   xmlns:sodipodi="http://sodipodi.sourceforge.net/DTD/sodipodi-0.dtd"
   xmlns:inkscape="http://www.inkscape.org/namespaces/inkscape"
   aria-hidden="true"
   focusable="false"
   data-prefix="fas"
   data-icon="battery-empty"
   class="svg-inline--fa fa-battery-empty fa-w-20"
   role="img"
   viewBox="0 0 512 512"
   version="1.1"
   id="svg4"
   sodipodi:docname="battery-use.svg"
   width="512"
   height="512"
   inkscape:export-filename="/home/borysb/.config/xmobar/icons/battery-use.png"
   inkscape:export-xdpi="96"
   inkscape:export-ydpi="96"
   inkscape:version="0.92.4 5da689c313, 2019-01-14">
  <metadata
     id="metadata10">
    <rdf:RDF>
      <cc:Work
         rdf:about="">
        <dc:format>image/svg+xml</dc:format>
        <dc:type
           rdf:resource="http://purl.org/dc/dcmitype/StillImage" />
        <dc:title></dc:title>
      </cc:Work>
    </rdf:RDF>
  </metadata>
  <defs
     id="defs8" />
  <sodipodi:namedview
     pagecolor="#ffffff"
     bordercolor="#666666"
     borderopacity="1"
     objecttolerance="10"
     gridtolerance="10"
     guidetolerance="10"
     inkscape:pageopacity="0"
     inkscape:pageshadow="2"
     inkscape:window-width="1278"
     inkscape:window-height="1409"
     id="namedview6"
     showgrid="false"
     inkscape:zoom="1.4882812"
     inkscape:cx="256"
     inkscape:cy="256"
     inkscape:window-x="0"
     inkscape:window-y="29"
     inkscape:window-maximized="0"
     inkscape:current-layer="svg4" />
  <path
     d="m 435.2,179.2 v 51.2 h 25.6 v 51.2 h -25.6 v 51.2 H 51.2 V 179.2 h 384 M 448,128 H 38.4 C 17.192,128 0,145.192 0,166.4 V 345.6 C 0,366.808 17.192,384 38.4,384 H 448 c 21.208,0 38.4,-17.192 38.4,-38.4 v -12.8 h 6.4 c 10.604,0 19.2,-8.596 19.2,-19.2 V 198.4 c 0,-10.604 -8.596,-19.2 -19.2,-19.2 h -6.4 V 166.4 C 486.4,145.192 469.208,128 448,128 Z"
     id="path2"
     inkscape:connector-curvature="0"
     style="fill:currentColor;stroke-width:0.80000001" />
  <rect
     style="fill:#000000;stroke-width:0.92702478"
     id="rect12"
     width="60"
     height="110"
     x="80"
     y="201" />
  <rect
     y="201"
     x="170"
     height="110"
     width="60"
     id="rect16"
     style="fill:#000000;stroke-width:0.92702478" />
  <rect
     style="fill:#000000;stroke-width:0.92702478"
     id="rect18"
     width="60"
     height="110"
     x="260"
     y="201"
     inkscape:export-filename="/home/borysb/.config/xmobar/icons/rect18.png"
     inkscape:export-xdpi="96"
     inkscape:export-ydpi="96" />
</svg>
