/* XPM */
static char *battery_use[] = {
/* columns rows colors chars-per-pixel */
"24 12 2 1 ",
"  c None",
". c black",
/* pixels */
"......................  ",
"....................... ",
"...                 ... ",
"..  ..   .   .      ....",
"..  ... ... ...      ...",
"..  ... ... ...       ..",
"..  ... ... ...       ..",
"..  ... ... ...      ...",
"..  ..   .   .      ....",
"...                 ... ",
"....................... ",
"......................  "
};
