<?xml version="1.0" encoding="UTF-8" standalone="no"?>
<svg
   xmlns:dc="http://purl.org/dc/elements/1.1/"
   xmlns:cc="http://creativecommons.org/ns#"
   xmlns:rdf="http://www.w3.org/1999/02/22-rdf-syntax-ns#"
   xmlns:svg="http://www.w3.org/2000/svg"
   xmlns="http://www.w3.org/2000/svg"
   xmlns:sodipodi="http://sodipodi.sourceforge.net/DTD/sodipodi-0.dtd"
   xmlns:inkscape="http://www.inkscape.org/namespaces/inkscape"
   aria-hidden="true"
   focusable="false"
   data-prefix="fas"
   data-icon="battery-empty"
   class="svg-inline--fa fa-battery-empty fa-w-20"
   role="img"
   viewBox="0 0 512 512"
   version="1.1"
   id="svg4"
   sodipodi:docname="battery-charge.svg"
   inkscape:export-filename="/home/borysb/.config/xmobar/icons/battery-charge.png"
   inkscape:export-xdpi="96"
   inkscape:export-ydpi="96"
   width="512"
   height="512"
   inkscape:version="0.92.4 5da689c313, 2019-01-14">
  <metadata
     id="metadata10">
    <rdf:RDF>
      <cc:Work
         rdf:about="">
        <dc:format>image/svg+xml</dc:format>
        <dc:type
           rdf:resource="http://purl.org/dc/dcmitype/StillImage" />
        <dc:title></dc:title>
      </cc:Work>
    </rdf:RDF>
  </metadata>
  <defs
     id="defs8">
    <mask
       maskUnits="userSpaceOnUse"
       id="mask3869">
      <g
         id="g3875">
        <rect
           y="62.915245"
           x="-1.31898e-05"
           height="394.84747"
           width="180.06781"
           id="rect3871"
           style="fill:#ffff00;stroke-width:0.74887305" />
        <rect
           y="62.915245"
           x="401.35596"
           height="394.84747"
           width="240.81357"
           id="rect3873"
           style="fill:#ffff00;stroke-width:0.86602545" />
      </g>
    </mask>
  </defs>
  <sodipodi:namedview
     pagecolor="#ffffff"
     bordercolor="#666666"
     borderopacity="1"
     objecttolerance="10"
     gridtolerance="10"
     guidetolerance="10"
     inkscape:pageopacity="0"
     inkscape:pageshadow="2"
     inkscape:window-width="1278"
     inkscape:window-height="1409"
     id="namedview6"
     showgrid="false"
     inkscape:zoom="0.921875"
     inkscape:cx="242.74517"
     inkscape:cy="15.380367"
     inkscape:window-x="0"
     inkscape:window-y="29"
     inkscape:window-maximized="0"
     inkscape:current-layer="svg4">
    <inkscape:grid
       type="xygrid"
       id="grid3877"
       originx="-21.694916"
       originy="-107.42374" />
  </sodipodi:namedview>
  <path
     d="m 544,157.83051 v 64 h 32 v 64 h -32 v 64 H 64 v -192 H 544 M 560,93.830508 H 48 c -26.51,0 -48,21.490002 -48,48.000002 0,0 0,173.41167 0,224 0,50.58833 21.49,48 48,48 h 512 c 26.51,0 48,-21.49 48,-48 v -16 h 8 c 13.255,0 24,-10.745 24,-24 v -144 c 0,-13.255 -11.34837,-27.95364 -24,-24 h -8 v -16 c 0,-26.51 -21.49,-48.000002 -48,-48.000002 z"
     id="path2"
     inkscape:connector-curvature="0"
     style="fill:currentColor"
     mask="url(#mask3869)"
     transform="matrix(0.8,0,0,0.8,0,65.39663)"
     sodipodi:nodetypes="cccccccccssszssscsssscss"
     inkscape:export-filename="/home/borysb/.config/xmobar/icons/path2.png"
     inkscape:export-xdpi="96"
     inkscape:export-ydpi="96" />
  <rect
     style="fill:none;stroke-width:0.80000001"
     id="rect3751"
     width="227.36272"
     height="300.25763"
     x="152.73221"
     y="103.57968" />
  <path
     inkscape:connector-curvature="0"
     style="fill:currentColor;stroke-width:0.61028367"
     d="m 329.77907,207.25424 h -68.53614 l 25.30017,-81.4 c 2.37561,-9.53219 -4.45425,-18.93896 -13.77849,-18.93896 h -85.5217 c -7.1268,0 -13.18458,5.58135 -14.13483,13.04406 L 154.10325,270.4678 c -1.1284,9.0305 5.52328,17.05763 14.13484,17.05763 H 238.7341 L 211.35528,409.5 c -2.13805,9.5322 4.75121,18.5 13.83789,18.5 4.98876,0 9.73996,-2.75933 12.35313,-7.52542 L 342.07281,229.83051 c 5.52328,-9.97118 -1.30658,-22.57627 -12.29374,-22.57627 z"
     id="path2-3" />
</svg>
