/* XPM */
static char *volume_up[] = {
/* columns rows colors chars-per-pixel */
"24 24 2 1 ",
"  c None",
". c black",
/* pixels */
"                        ",
"                 ..     ",
"                 ...    ",
"         .        ...   ",
"        ...        ...  ",
"       ....    ..   ..  ",
"      .....    ...   .. ",
" ..  ......     ...  .. ",
"...........  .   ..  ...",
"...........  ..   ..  ..",
"...........  ...  ..  ..",
"...........   ..  ..  ..",
"...........   ..  ..  ..",
"...........  ...  ..  ..",
"...........  ..   ..  ..",
"...........  .   ..  ...",
" ..  ......     ...  .. ",
"      .....    ...   .. ",
"       ....    ..   ..  ",
"        ...        ...  ",
"         .        ...   ",
"                 ...    ",
"                 ..     ",
"                        "
};
