<?xml version="1.0" encoding="UTF-8" standalone="no"?>
<svg
   xmlns:dc="http://purl.org/dc/elements/1.1/"
   xmlns:cc="http://creativecommons.org/ns#"
   xmlns:rdf="http://www.w3.org/1999/02/22-rdf-syntax-ns#"
   xmlns:svg="http://www.w3.org/2000/svg"
   xmlns="http://www.w3.org/2000/svg"
   xmlns:sodipodi="http://sodipodi.sourceforge.net/DTD/sodipodi-0.dtd"
   xmlns:inkscape="http://www.inkscape.org/namespaces/inkscape"
   aria-hidden="true"
   focusable="false"
   data-prefix="fas"
   data-icon="volume-mute"
   class="svg-inline--fa fa-volume-mute fa-w-16"
   role="img"
   viewBox="0 0 512 512"
   version="1.1"
   id="svg4"
   sodipodi:docname="volume-mute.svg"
   inkscape:export-filename="/home/borysb/.config/xmobar/icons/volume-mute.png"
   inkscape:export-xdpi="96"
   inkscape:export-ydpi="96"
   inkscape:version="0.92.4 5da689c313, 2019-01-14">
  <metadata
     id="metadata10">
    <rdf:RDF>
      <cc:Work
         rdf:about="">
        <dc:format>image/svg+xml</dc:format>
        <dc:type
           rdf:resource="http://purl.org/dc/dcmitype/StillImage" />
        <dc:title></dc:title>
      </cc:Work>
    </rdf:RDF>
  </metadata>
  <defs
     id="defs8" />
  <sodipodi:namedview
     pagecolor="#ffffff"
     bordercolor="#666666"
     borderopacity="1"
     objecttolerance="10"
     gridtolerance="10"
     guidetolerance="10"
     inkscape:pageopacity="0"
     inkscape:pageshadow="2"
     inkscape:window-width="1278"
     inkscape:window-height="1409"
     id="namedview6"
     showgrid="false"
     inkscape:zoom="0.4609375"
     inkscape:cx="-114.98305"
     inkscape:cy="256"
     inkscape:window-x="0"
     inkscape:window-y="29"
     inkscape:window-maximized="0"
     inkscape:current-layer="svg4" />
  <path
     d="M 215.0279,71.050315 126.05877,160.00024 H 23.999766 C 10.739895,160.00024 0,170.74023 0,184.00022 V 328.0001 c 0,13.24999 10.739895,23.99998 23.999766,23.99998 H 126.05877 l 88.96913,88.94993 c 15.02985,15.02998 40.9696,4.46999 40.9696,-16.96999 V 88.020301 c 0,-21.459982 -25.95975,-31.979973 -40.9696,-16.969986 z M 461.63549,256.00016 507.27505,210.3602 c 6.29993,-6.3 6.29993,-16.51999 0,-22.81998 l -22.81978,-22.81998 c -6.29994,-6.3 -16.51984,-6.3 -22.81978,0 l -45.63955,45.63996 -45.63956,-45.63996 c -6.29994,-6.3 -16.51984,-6.3 -22.81977,0 l -22.81978,22.81998 c -6.29994,6.29999 -6.29994,16.51998 0,22.81998 l 45.63955,45.63996 -45.62955,45.62996 c -6.29994,6.3 -6.29994,16.51999 0,22.81998 l 22.81978,22.81998 c 6.29993,6.3 16.51983,6.3 22.81977,0 l 45.62956,-45.62996 45.63955,45.63996 c 6.29994,6.3 16.51984,6.3 22.81978,0 l 22.81978,-22.81998 c 6.29993,-6.29999 6.29993,-16.51998 0,-22.81998 z"
     id="path2"
     inkscape:connector-curvature="0"
     style="fill:currentColor;stroke-width:0.9999947" />
</svg>
